<svg xmlns="http://www.w3.org/2000/svg" style="max-width:100%;height:auto" viewBox="0 0 1559 178" width="1559" height="178"><path fill="#F60" d="M1102 177c-24-2-39-7-53-18l-6-4-5-6-6-6v-1l-1-2-2-1-3-6-5-10-2-5-1-2v-1c-1 0-3-14-3-26 0-11 2-24 3-24v-2l1-1 2-4a69 69 0 0 1 11-21l1-2 3-4 5-5 8-7c2-3 17-11 23-12l4-3c3-2 14-4 34-4 17 0 21 0 29 2l8 3 1 1a98 98 0 0 1 38 25l3 5 2 3 1 1c4 3 12 28 12 36l1 3v20l-2 9c-1 9-7 25-10 27l-1 1v1l-6 8-6 8-7 5-7 5-2 1c-1 3-13 8-27 11-9 2-27 3-35 2Zm27-45 7-4c4-2 12-12 13-17l2-3c1 0 3-10 3-18 0-9-2-21-3-21v-1c1-1 0-1-1-1l-3-5c-3-6-8-12-14-14l-4-3c0-1-7-3-15-4-9 0-19 1-21 4l-6 3c-5 2-10 7-12 12l-2 2v1l-1 1c-1 0-4 6-5 13-3 11 1 34 6 38l1 1 1 2 5 6c8 8 17 11 34 11 8-1 11-1 15-3ZM76 174c-3 0-4-1-6-4l-3-7-3-4v-2l-1-1-7-17-5-11a284 284 0 0 1-15-36l-4-10a79 79 0 0 0-10-22l-3-9-7-19-1-1-1-1v-1A80 80 0 0 1 1 3l26-1h26l2 6a849 849 0 0 1 11 28l10 24 2 4 1 1v1l4 11c4 11 13 30 15 32 1 1 2 0 3-3l2-4 1-1v-1l4-11 9-23a227 227 0 0 0 12-28v-1l1-2 1-2 2-6 10-24 25-1h23v3c0 4-5 18-6 18v1l-1 2-6 14a65 65 0 0 1-6 14l-1 1v1l-1 2-3 8-6 15-3 7v1l-1 1-8 20-4 9v1l-1 1-2 2-3 9-4 12-4 10c-2 2-6 14-8 18l-2 2H76Zm132 0h-5V89l1-86h132c1 1 2 28 1 34l-1 4h-41l-42 1v24h4a3420 3420 0 0 0 69 1l1 19v18l-36 1-38 1v29h44l44 1v18c0 17 0 19-2 20H208Zm157 0h-4V3l23-1 25 1 1 86v84h-2c-3 1-39 2-43 1Zm78 0h-4V88l1-85h47v64c0 57 0 64 2 65 1 2 6 2 40 2l41 1c2 1 3 36 1 38l-63 1h-65Zm233 0-1-86V2h49c47 0 60 1 60 3l1 1c3 0 16 5 20 8l5 3 1 1 5 6c10 10 14 23 14 41 0 16-4 28-11 37-9 11-17 17-28 20l-7 3c-1 2-10 2-34 3l-25 1-1 22-1 23h-47Zm88-87c4-2 11-7 13-11 2-5 3-15 1-20s-8-11-13-13c-4-1-38-3-40-1l-1 21c0 27-1 25 4 25 8 1 33 0 36-1Zm86 87c-2 0-2-5-2-86l1-85a1014 1014 0 0 1 108 2l7 3 12 6 6 3c2 0 15 18 17 24s4 18 4 26c0 6-3 19-6 25-3 7-11 16-19 22l-6 4 3 6 5 7 1 2 1 1 3 5 9 14c4 5 8 10 8 12l4 4v1l1 1 1 1c0 2-8 3-33 3h-19l-4-4-4-5-8-12-11-18c-4-8-6-9-19-9l-11 1c-2 0-2 3-2 22l-1 23a338 338 0 0 1-46 1Zm85-87 6-3 4-3c3-3 6-8 6-12l1-3 1-2-1-1-1-3c0-3-3-9-6-12l-5-3a136 136 0 0 0-41-4l-2 1v22l1 23h37Zm282 87-16-1 2-3 3-5 11-15 8-12 3-4 3-3 1-2c1-1 3-3 3-5l6-7 2-4 1-1 2-3a479 479 0 0 1 12-17c2-3 2-8 0-10l-2-2-2-2-4-6-5-8-13-20-3-4-6-8-4-6-2-1-1-2-2-3-4-7-4-8-1-3h26l28 1 6 9 6 8v1l1 1 7 11 3 4 2 3 1 1 3 4c2 5 4 5 10-3 3-3 6-8 6-10l6-7 4-5c0-2 6-10 8-12l2-2V4c2-2 4-2 54-2h51l3 5 7 10 4 6v1l1 1 1 1 1 2 2 2 4 9 4 7 2 3 6 8 5 8c2 2 4-1 7-7l5-6v-2l1-1v-1l1-1 3-4 9-16 5-8 9-16 26-1c28 0 27-1 20 11l-4 7-1 1-9 15-3 4-1 1v1l-3 4c-5 11-9 17-11 19l-6 9-9 15-6 12-4 5-2 2c1 0 1 1-1 1-1 2-2 3-2 33v32h-49v-59l-4-7a393 393 0 0 1-14-22 90 90 0 0 0-10-17v-1l-5-7c-3-7-4-9-11-18l-6-11-4-7-4-4c-1-4-7-14-8-14l-5 8-9 12-4 5a184 184 0 0 1-18 27l-4 5-5 7-8 12-1 1v4l9 14 4 4v1l1 2 2 1 4 8 5 7 2 2 1 1 2 3 5 8 4 6a124 124 0 0 1 14 21l3 3c4 5 3 6-26 5l-29-1-1-2-1-1-5-7a289 289 0 0 0-17-25l-4-5-1-1-2-3-3-3-3 2-2 3-3 4-2 3-4 7-4 7-1 1-6 8c-9 13-8 13-21 13h-28Z"/></svg>