<svg xmlns="http://www.w3.org/2000/svg" style="max-width:100%;height:auto" viewBox="0 0 1024 1024" width="1024" height="1024"><path fill="#F60" d="m723 818-6 3c-6 0-37-14-49-22l-3-3-6-17c-3-9-8-22-14-31a105 105 0 0 0-34-33c-2-2-22-10-25-10-2 0-1 2 1 5 4 5 10 21 10 24 0 2-1 2-9-6-13-12-34-28-42-31l-12-3a248 248 0 0 1-47-11l-9-3 2 4 5 10-5-1c-15-4-34-6-58-6a232 232 0 0 0-95 18 1546 1546 0 0 0-48 17 164 164 0 0 1-40 9 167 167 0 0 1-39-1l-11-18a365 365 0 0 1-34-78l-4-14-5-19c-3-15-3-16-5-13-9 12-15 23-20 34l-4 20c-2 20 2 39 11 55l3 7c0 2-7-3-15-11-21-20-29-38-33-65v-27a145 145 0 0 1 46-87l8-8 1-14a423 423 0 0 1 14-76 1201 1201 0 0 1 15-44 362 362 0 0 1 163-180l3 8c2 16 5 25 8 34 2 4 1 7-1 8a206 206 0 0 0-27 18l-5 4a320 320 0 0 0-69 76 318 318 0 0 0-45 120c-3 11-3 12 3 13l15 1 11 2c3 1 4-2 6-15l4-21 3-11 4-11 2-7a279 279 0 0 1 100-131l9-5c4-3 7-3 9 1l2 5 4 5 2 5-2 2-12 9c-21 15-44 38-55 54l-8 13a214 214 0 0 0-21 40l-10 24c-2 7-9 36-9 41 0 2 0 2 3 3s3 2 5 10c2 16 2 18-6 34a137 137 0 0 0-13 37c-2 5-3 20-3 35l-1 14c-2 0-6-16-10-39l-3-12-32 3a143 143 0 0 0 6 34 174 174 0 0 0 10 38l3 10 4 9 4 8 1 3a361 361 0 0 0 27 47l14-13v-6l-1-13c-1-9-1-10-5-19l-1-2c-11-22-12-26-11-29l1-2c11-18 14-22 16-17l4 9c3 7 5 9 5 6s7-17 13-27c5-10 6-11 7-19v-9c-1-1-8 2-12 5l-24 24c-2 3-4 4-5 3-2 0-2-22 0-30l3-13c2-15 12-35 24-49 7-10 26-27 34-30 3-2 6-6 10-16 2-5 3-7 2-8l-15-3c-7 0-25 5-31 8l-5 2-2 1-4 1-4 2c-2 0-2 0-2-2 0-7 17-29 31-40 19-15 48-27 79-32l10-2c1-1-8-12-14-17-10-7-23-13-42-19l-6-2c0-2 4-5 8-7a166 166 0 0 1 101-3v1l13 3-1-1a233 233 0 0 1-76-83 219 219 0 0 1-20-116 405 405 0 0 0 41 71l6 7a232 232 0 0 0 63 51 546 546 0 0 0 53 24 178 178 0 0 1-32-108l2-5 7 15a205 205 0 0 0 98 96 238 238 0 0 1 74 60l1-8 2-8c1-2 3 0 9 9s21 26 29 32a242 242 0 0 1 30 29c4 4 6 10 6 16 0 5 0 6 3 9l7 5 4 3c3 4 30 19 35 20 5 2 6 1 6-6l3-14 7 6a86 86 0 0 1 20 38l1 19c0 13 0 14-3 22a86 86 0 0 1-41 46l-1-11c1-12 0-18-2-19l-7 4c-6 4-20 11-21 10l1-8 1-14c0-7 0-8-2-10-3-3-5-3-9 0l-22 11c-2 0-2-2-2-13 0-17-1-19-12-22l-7-2h-24l-24-2c-4-2-10-8-12-11-7-13-19-27-26-31-5-3-16-6-19-6-4 0-4 2-1 3 8 3 18 9 21 12 2 2 6 7 8 12 6 13 12 20 17 25 7 6 9 6 22 7l12 1 5 8c5 14 12 22 22 28 7 4 23 2 30-4 1-1 2-2 3-1l-2 25c-1 4 0 4 8 3s14-4 21-10l6-5 1 2 1 5-1 6c-2 9-8 25-12 31a92 92 0 0 1-43 34c-11 5-31 10-38 10-6 0-6-1-2-5 5-6 9-18 9-25 0-9-5-18-14-25l-7-6a117 117 0 0 0-76-18l-23-1c-8-1-14-3-14-5l9-6 15-9c6-6 7-6 9-13l3-9c0-2-1-2-12-2l-23-2c-10-2-19-5-19-7l9-5 12-9c4-3 10-11 10-13l-11-1c-13-1-34-3-41-6l-12-3c-10-2-17-5-24-10-2-1 2-2 8-2l7-1 11-3 13-3c24-11 25-11 16-14-23-6-39-12-50-19-7-5-19-14-22-18-9-10-13-16-12-17l10 3a226 226 0 0 0 32 10 244 244 0 0 0 41 8l3 1 20 6c1 2 11 7 12 7v-1c0-2-12-13-16-15-16-8-19-9-27-10a208 208 0 0 1-70-19l-14-7-14-5c-1 0 7 16 12 22l3 6 5 7c6 7 16 16 24 22 6 5 30 17 37 19 6 2 8 4 7 6l-6 2c-9 3-25 5-46 6l-19 1 3 2 5 3a220 220 0 0 0 91 28c5 0 6 0 6 2s-3 6-6 7l-2 1c0 1-16 8-25 10l-5 3c0 1 5 4 12 6a616 616 0 0 1 25 7l12 2c14 0 18 1 18 2 0 3-6 10-10 12l-7 2c-7 1-11 4-15 11-5 10-6 17-3 30v6c2 8 7 17 16 26l10 9 3 2 5 3 3 2-4 2-3 2 4 4 6 4a353 353 0 0 1 44 33 2147 2147 0 0 0 25 21l8 8-3 1-4 2 6 7 12 13 5 5a276 276 0 0 0 64-67c5-8 18-33 26-56 5-12 8-16 14-20 10-6 17-10 18-8l-3 18a217 217 0 0 1-11 33 301 301 0 0 1-48 79 290 290 0 0 1-47 44l3 11a522 522 0 0 1 7 20l4-2a209 209 0 0 0 23-18c2-1 12-9 16-14l9-8a514 514 0 0 0 42-52l14-26a182 182 0 0 0 16-39c5-16 14-58 14-71 0-6 0-6-3-6l-3-1 2-5a86 86 0 0 0 6-65l-4-16a200 200 0 0 0-5-25v-3l10-3 22-5h2c9-3 12-4 14-2l2 6a339 339 0 0 1 10 118 310 310 0 0 1-11 67l-2 10 3 3a274 274 0 0 1 11 14c8 10 17 28 20 40a94 94 0 0 1-4 64c-9 20-25 37-49 51-13 9-38 19-49 21-3 0-3 0-2-1l5-4 3-2 7-4 7-6a104 104 0 0 0 35-55c2-7 1-22 0-28-4-12-11-26-13-26l-5 9a279 279 0 0 1-40 58c-8 13-49 49-65 59Zm-172 65a434 434 0 0 1-178-22c-12-4-21-7-39-16l-14-7-8 2-13 3a227 227 0 0 1-94 5 138 138 0 0 1-58-20c-1-1-3-3-5-3l-20-16a238 238 0 0 1-30-35 183 183 0 0 1-18-33 211 211 0 0 1-16-61 174 174 0 0 1 17-93l2-3-3 18a136 136 0 0 0 1 33c2 9 4 18 7 25l5 10c8 16 28 37 45 48 16 10 34 17 55 21a255 255 0 0 0 75-3 156 156 0 0 0 34-10l9-3a551 551 0 0 1 83-25 296 296 0 0 1 108 9l11 4 10 4 6 2a219 219 0 0 1 51 26 518 518 0 0 1 72 51l8 6a209 209 0 0 0 52 28c4 2 20 5 35 7a192 192 0 0 0 86-20l4-2 5-2 7-4 6-4 8-6a157 157 0 0 0 42-52c2-4 3-6 4-5l-6 22c-8 18-12 25-19 34a219 219 0 0 1-49 46 221 221 0 0 1-139 34l-6-1a149 149 0 0 1-23-6l-12-4-8-3a343 343 0 0 1-81-50c-6-4-6-3-4 14l1 6h6c6 0 7 0 16 6a464 464 0 0 0 45 28l-15 6a242 242 0 0 1-58 11Zm166-511-14 4c-1 0-4-2-6-5-4-4-4-4-2-6l7-3c7-1 10-3 10-4a189 189 0 0 0-49-51c-7-7-21-16-36-23a217 217 0 0 0-68-24c-4 0-5 0-6 4l-2 4c-5 0-35-28-43-41a416 416 0 0 1-40-73c-2 0-3 9-4 23-2 22-2 23-5 24l-9 2-40 10-15 4-3-3c-5-5-16-21-20-30-5-9-5-9-3-10l6-2a212 212 0 0 1 24-8 365 365 0 0 1 148-13 282 282 0 0 1 74 15 304 304 0 0 1 37 14l19-9a553 553 0 0 1 118-42c17-3 53-3 61-1l5 1-12 2a462 462 0 0 0-78 19 3613 3613 0 0 1-41 20l9-3a302 302 0 0 1 64-18c5-3 54-8 69-8 14 0 34 2 40 4 8 3 17 8 20 13l4 5c2 2 7 20 7 25l-3 17c-7 27-23 51-53 77a134 134 0 0 1-22 18l-6 4-2 2a219 219 0 0 1-47 28l-7 4a747 747 0 0 1-86 34Zm52 58-16 1c-12 1-14 0-14-5 0-4-3-13-5-18-2-3-7-10-15-17l-6-6 3-2 10-4 10-4 10-4a171 171 0 0 0 22-8 241 241 0 0 0 34-14 221 221 0 0 0 39-21 284 284 0 0 0 92-84 100 100 0 0 0 16-62l-1-4a63 63 0 0 0-9-21c-1-3-1-3 1-3 6 0 18 10 24 19 3 5 6 14 10 33a95 95 0 0 0 9 21l3 8a133 133 0 0 1 10 42c0 12 0 13-5 29-6 17-22 39-40 54a324 324 0 0 1-41 30 242 242 0 0 1-54 23c-6 3-38 10-65 14-5 0-8 0-12-4l-3-3-1 5-1 5Zm42-121 5 6 12-7c21-14 31-22 40-32 8-8 12-14 16-23 2-5 2-7 2-18s0-13-2-17l-5-7c-7-7-22-14-34-16l-6-1a357 357 0 0 0-66 2c-10 1-42 9-52 13l-5 3 12 9a369 369 0 0 1 62 59 157 157 0 0 1 17 23l4 6Zm-78 35 4 5 3-1c10-5 13-6 18-7l8-3c1-2 1-2-1-6l-8-13-9-11a275 275 0 0 0-97-77 184 184 0 0 0-32-14c-13-5-53-15-55-13a180 180 0 0 0-4 31l8 2a274 274 0 0 1 110 50 275 275 0 0 1 55 57ZM212 832a269 269 0 0 0 71-5l7-2 4-2-4-4-4-3 7-3 3-1 11-4a119 119 0 0 0 20-6l14-5c7-3 8-4 11-1l4 2 20-9a211 211 0 0 1 75-24c1-1-15-2-21-2l-16 2a312 312 0 0 0-94 29l-8 3-23 6-11 3-36 4a245 245 0 0 1-75-13l-5-2a450 450 0 0 1-45-25c-1 1 3 8 5 10l2 2a124 124 0 0 0 63 43c12 5 17 6 25 7Zm373-147h6l-5-5a167 167 0 0 0-24-19l-10-7a150 150 0 0 0-23-14c-3-2-13-5-14-4l3 10 4 11-10-5c-4-3-10-8-24-24l-5-5a157 157 0 0 1-42-26l-8-8 1 6c2 16 7 31 15 41 9 12 15 17 28 23 22 9 39 14 60 16l12 2 11 2 25 6Zm-73-71c5 2 5 1 3-4l-3-5-3-9c-3-8-3-8-11-15a427 427 0 0 1-13-9l-1 9-1 8-8-13-5-20-4-7c-9-12-13-21-14-35l-1-9c-1 0-10 19-13 28l-2 16c1 6 3 14 6 20a86 86 0 0 0 27 25c3 3 35 17 43 20Zm-42 219 3 1c2 0 5-15 5-29 0-4 0-4-9-6-4 0-11-1-16-3-7-2-12-2-18-2-8 0-10 0-22 5a727 727 0 0 0-28 13c2 2 26 10 40 13 20 5 24 6 45 8Zm84-449c2 4 2 2 1-5s-4-15-8-25l-3-7c1-1 11 3 17 7 10 6 21 16 30 27l5 5-4-9c-3-5-7-12-11-16a133 133 0 0 0-60-39l-6-2-3 2-3 9v1l-1 6 8 7c9 5 17 12 22 17 6 5 14 16 16 22Zm369-28c-3 3-1 3 5-2 11-7 24-20 35-34a71 71 0 0 0 11-63c-2-5-2-3-5 11-2 15-5 22-11 36l-5 10a183 183 0 0 1-30 42ZM324 560l3-13a223 223 0 0 1 41-103l18-24 5-5-4 2-22 19c-7 7-19 22-26 33-2 4-3 5-1 5h1l-2 4v1l-2 7-5 14c-2 7-5 24-6 41v19Zm137-300-11 2-14-8-9-6-1-3 27-8c11-2 12-2 13-1 2 2 7 21 6 21l-11 3Zm-43 35c1 5 3 4 5-2l5-8 3-5-3-2-7-5c-12-7-33-27-49-46l-4-4 4 7c6 12 18 29 32 43 8 8 12 14 12 16l2 6Zm78 61 2 2-1-10c-1-10 0-20 4-27 2-5 2-6-3-8a5558 5558 0 0 1-15-6c-2-2-8-1-9 1-2 2-4 7-4 10 0 2 10 10 13 10 1 0 5 5 5 7l2 5 3 9 3 7Zm215 78 1-4c0-6-1-10-6-17-3-4-13-13-15-13l-3-2-6-5-16-10-8-4-7-4-6-3-12-5c-8-4-19-9-23-9-2-1-2-1 0 1l6 4a453 453 0 0 1 55 29c7 4 20 13 25 18a74 74 0 0 1 15 24ZM404 674c4 2 5 1 7-4l3-10c3-11 4-16 4-26s-1-12-2-4c-1 6-4 13-8 22-3 7-6 10-8 10a139 139 0 0 1-32-12l5 6c6 6 9 8 31 18Zm-19-174c1 1 3 1 21-1a54 54 0 0 0 25-9h-36c-2-2-2-3-3-19l-1-17c-3 0-9 43-6 46Zm-8 121 4 2c2-1 9-10 12-17l5-7c2-1 7-11 7-16l1-2-2 2c-9 12-25 28-27 26l-6-5c-7-4-12-8-16-14-5-6-6-5-2 3 6 11 14 20 24 28Zm80-294c1 3 2-1 2-8l4-12 2-7-10-6-11-6c-4-3-11 3-11 8 0 1 3 4 7 6 8 6 13 10 13 12l4 13Zm-89 232 3 2 11-5c9-4 23-15 27-20l1-2-4 2c-9 6-12 7-20 9l-10 3c-2 0-7-6-7-8l-1-2c-2-2-8-16-9-20 0-4-2-4-2 0 0 8 2 18 6 28l5 13Zm299-114h16c1-2-17-18-26-23l-14-6c-1 0 6 17 9 21 2 3 9 7 15 8Zm-53-103c4 1 0-4-9-11a427 427 0 0 0-47-28c4 3 21 17 32 28l14 8 10 3Zm166 160 1 1c3 0-2-14-7-17l-14-7c-1 0-1 4 1 7l5 4c5 2 14 10 14 12Zm-4-52-2 1c-2 0-14-9-14-10 1-1 14-2 15-1s2 8 1 10Zm-124 7h8c4 0 5-1 2-1-4 0-13-4-19-8l-6-3c-1 1 6 8 9 10l6 2ZM297 686l2 4v-12c-1-2-1-2-3 0-2 1-3 4-1 4l2 4Z"/></svg>