<svg xmlns="http://www.w3.org/2000/svg" style="max-width:100%;height:auto" viewBox="0 0 1800 1800" width="1024" height="1024"><path fill="#F60" fill-rule="evenodd" d="M597 252a347 347 0 0 0 12 137 210 210 0 0 0 15 46c3 10 8 21 9 21l1 1v1l6 11 6 11 6 9a123 123 0 0 0 7 13l1 1 5 6 9 11 7 8c0 2 2 4 4 5l5 6 6 6 9 9a157 157 0 0 0 26 23 269 269 0 0 0 37 28 504 504 0 0 1-48-12l-14-3a471 471 0 0 0-101 3l-10 3a140 140 0 0 0-32 10l-5 4-5 4c0 1 4 3 9 4l6 2 8 3a236 236 0 0 1 52 23l3 2 17 12 6 7c8 10 11 14 10 16l-8 2-7 1-11 2a253 253 0 0 0-83 25 147 147 0 0 0-27 14 130 130 0 0 0-29 21c-2 0-12 11-11 12h-1l-4 3-7 9-5 6-5 8-9 12c-3 6-7 17-6 18l13-4a139 139 0 0 1 16-6c1-2 4-3 15-7 6-2 24-6 29-6l5-1 9-1 8 1 3 1 14 4c1 1 0 5-4 13l-3 7-2 3-1 3v1l-2 4c-3 4-5 7-10 10-5 2-10 6-12 8l-2 2c-1 0-4 2-7 6l-7 5a405 405 0 0 0-39 42l-9 13-4 6-1 2-2 5-6 12-4 9a238 238 0 0 0-13 53l-1 5v4c-1 0-2 23-1 35 0 11 0 11 2 10 3 0 8-6 10-10l4-5 9-10a148 148 0 0 1 27-24c3-3 11-7 17-9 5-1 6 0 6 4l-1 11c-2 14-3 18-6 23l-6 7-7 12a173 173 0 0 0-14 32l-1 1v1c-1 1-7 19-9 29l-2 10-1 4v3l-1 4v5a494 494 0 0 0 3 83 152 152 0 0 0 14 44l4 4 1-1a124 124 0 0 1 6-22l1-1 4-12a149 149 0 0 1 18-36l4-6v-1l1-1 3-4c1-2 3-3 3-2l2 15c1 18 2 24 3 24v4l1 3 1 4a351 351 0 0 0 12 36l8 10c0 1 4 5 6 5l6 5a301 301 0 0 0 57 41l17 9a338 338 0 0 1 23 12l11 5 13 5 23 10a392 392 0 0 0 43 13 456 456 0 0 0 82 17 369 369 0 0 0 90 1v-29c-1-11-6-36-7-37s-4-14-3-15l9 2a949 949 0 0 0 81 18l12 3 9 2a297 297 0 0 1 76 30l16 10 10 6 6 5 7 5c4 2 4 5 0 6l-3 2-25 11-3 1-19 7-21 8a386 386 0 0 1-49 13 617 617 0 0 1-234 3 2241 2241 0 0 0-12-2l-4-1-13-3a312 312 0 0 1-68-21l-4-1-3-1-5-3a188 188 0 0 1-32-13 194 194 0 0 1-35-18 137 137 0 0 1-21-12 50 50 0 0 1-14-9l-6-3-8-5-7-5-5-4a52 52 0 0 1-15-11 105 105 0 0 1-21-16 992 992 0 0 1-59-61l-4-5-5-7-4-5-2-2-2-3-2-3-8-12v-1l-1-1-9-16-3-3-1-2v-1l-2-3-5-9-4-9-2-2-3-5-5-11-4-10-1-3v-1c1-1 0-1-1-1l-4-9-8-19v-1l-1-2a304 304 0 0 1-13-39 447 447 0 0 1-14-55 616 616 0 0 1-5-203l5-29 1-2v-1l1-3v-3l3-11a197 197 0 0 1 10-38v-2l5-15 7-21a289 289 0 0 0 14-33l1-1v-1l3-5a104 104 0 0 1 10-22v-1l6-10 6-11v-1l1-2 4-4c2-6 8-15 9-15l1-1 4-7 4-8 2-2 2-2 2-3 3-4a47 47 0 0 1 10-13 265 265 0 0 1 28-34 421 421 0 0 1 115-92c8-4 9-6 6-14a1227 1227 0 0 1-20-77l-7 3-5 3-11 6-6 3-1 1-10 6a60 60 0 0 0-12 9l-8 4a172 172 0 0 1-12 8l-11 8-6 4-3 3a516 516 0 0 0-122 126l-5 8c-2 4-6 7-6 7l-1 1-4 8-5 8-3 3-5 10a222 222 0 0 1-9 15l-6 11a3318 3318 0 0 1-10 18 110 110 0 0 0-10 23v1c1 1 0 1-1 1l-2 4a271 271 0 0 0-11 27l-6 16a142 142 0 0 1-7 19v1a253 253 0 0 0-12 42l-1 2v2l-2 6a5117 5117 0 0 1-3 17 803 803 0 0 0-12 214l4 24 1 6a423 423 0 0 0 18 83 134 134 0 0 0 6 22l1 1v1l1 2 6 16a117 117 0 0 0 6 19l1 1 1 1a274 274 0 0 0 19 45l6 14 7 13 8 14 5 8a56 56 0 0 0 7 11v1l9 15 2 3 8 10c0 2 5 8 8 10l2 3 5 7c3 3 4 6 4 7l1 1 6 7a536 536 0 0 0 154 129l14 8 12 6a234 234 0 0 1 19 11l22 10a436 436 0 0 0 57 22l10 4a472 472 0 0 0 70 19 500 500 0 0 0 76 13 918 918 0 0 0 178-5l18-3a321 321 0 0 0 57-14 230 230 0 0 0 39-12 360 360 0 0 0 49-20l9-3 1-1 21-10 6-4 6-3 8-4 8-4 2-1 10-6 11-7 16-10 4-3c2-3 7-5 11-8l12-8a193 193 0 0 1 14-11l8-6a362 362 0 0 0 46-43 1098 1098 0 0 1 35-38 353 353 0 0 0 40-55l1-2 1-1 1-1 4-7 4-8 2-2v-1c-1-1 0-1 1-1l6-11 6-11v-1l1-1v-1l1-1a103 103 0 0 0 12-24v-1c-1-1 0-1 1-1l2-5a369 369 0 0 1 4-10 256 256 0 0 0 7-15 251 251 0 0 0 13-37l4-11a1027 1027 0 0 1 9-31 266 266 0 0 0 12-51l1-3v-2l1-3v-4l8-55a608 608 0 0 0-22-239v-2c1-1 0-1-1-2l-3-8a176 176 0 0 0-9-30l-1-2-6-18-7-18-8-17-4-10v-1l-1-1-1-1v-1l-5-11-6-11v-1l-1-1-1-1v-1l-6-11-6-11-1-1v-1l-3-5a249 249 0 0 0-17-28l-4-4-1-3-2-2-2-2a172 172 0 0 0-20-29l-4-4-5-7-8-9c-3-2-5-5-5-6l-4-4-4-5a613 613 0 0 0-356-193 777 777 0 0 0-268 7 2072 2072 0 0 1-47 13 269 269 0 0 0-47 18l1 1 2 3a77 77 0 0 0 11 22v1l4 5 11 16 8 12 2 2 2 2 4 5c4 4 7 5 8 3l30-9 15-4 13-3a506 506 0 0 1 54-11l2-19a276 276 0 0 1 9-66l19 38 4 10c2 1 2 3 10 19l5 11 3 2h25a651 651 0 0 1 195 32l11 4 22 9 11 5a242 242 0 0 1 47 25l10 5 7 4 1 1 6 4c7 4 13 8 14 10l3 2c2 0 8 5 14 10l13 9 5 5 8 7 7 6a1147 1147 0 0 1 59 63 187 187 0 0 1 17 22l6 9 4 6 1 2 2 2 2 2 5 8 4 8 1 1 6 10 6 11 2 2a180 180 0 0 0 13 26l2 6a192 192 0 0 1 11 27l10 28 3 9a245 245 0 0 1 12 43v2c-1 1 0 2 1 2v2l1 3 6 26a108 108 0 0 0 6 29l1 2c2 1 6 23 7 36 1 14 0 36-2 44l-3 26a102 102 0 0 1-3 26v4l-1 4a524 524 0 0 1-49 180l-2 6-1 1-1 1v3c-2 1-11 20-11 21l-1 1-1 1-1 2-6 11-5 8-1 1-4 8-5 8-3 4-6 9-6 8-4 5-4 6-5 6-6 7-6 7-4 5-11 13-22 21a1034 1034 0 0 0-12 12l-10 7-7 7-12 9a187 187 0 0 0-16 10l-12 9-5 3c-6 3-6 2-7-5l-2-5v-2l-1-2v-1l-1-2-3-9c-4-12-8-22-10-24l-1-3c1-1 15-13 17-13l2-2c2-2 9-8 11-8l6-6 8-6 6-6 5-5a217 217 0 0 0 27-27l8-9 6-7 5-6 7-9 3-4 9-13v-2l1-1 9-14 5-7 2-3 3-7 5-9 2-4 1-1 1-2 9-21 2-3 1-1v-1l1-2 3-8 5-11c0-3 2-7 3-8v-3l1-1 1-1v-2a200 200 0 0 0 11-35l1-2v-1l1-2v-2l6-26c0-5 0-5-2-5s-18 8-25 13l-9 5c-5 2-5 3-8 9l-4 7a124 124 0 0 0-12 26l-1 6-1 1-6 14a71 71 0 0 1-6 15l-1 1-6 12-6 12v1c1 1 0 1-1 1v1l-1 1-6 10-6 11v1l-1 2-5 7a57 57 0 0 1-10 14l-15 18-7 10-5 5a8904 8904 0 0 0-50 48l-10 9-11 8-4-4a214 214 0 0 0-38-41c-2-2-2-2 6-3l8-3a119 119 0 0 0-20-20l-5-5a176 176 0 0 1-16-14l-8-6a546 546 0 0 0-44-33l-11-8a511 511 0 0 0-46-34l-3-3 7-3 7-5-5-3c-5-2-8-3-12-7l-4-3a47 47 0 0 1-15-12l-9-9-4-5a72 72 0 0 1-14-25c-1-1-4-14-5-29v-21c1-9 4-19 5-19l1-1v-1l2-4c3-6 8-11 12-13l4-2 8-2 13-3c5-2 16-13 18-18 2-6 1-6-12-6l-20-1a301 301 0 0 1-48-12 272 272 0 0 1-37-13c-2 0-3-1-3-2a159 159 0 0 1 26-9l6-3a169 169 0 0 0 30-15c7-4 10-8 9-10s-2-2-9-2a370 370 0 0 1-123-30l-15-7-13-6-13-7-6-4c-12-5-11-6 5-6a454 454 0 0 0 65-4c12 0 40-7 45-11l3-5a309 309 0 0 1-78-39 265 265 0 0 1-48-48l-7-10c-2-1-7-11-10-18l-4-6-9-20 25 12a191 191 0 0 0 28 13c2 2 11 5 20 8l16 6a321 321 0 0 0 49 13l32 5c14 2 31 6 31 8l2 1a124 124 0 0 1 32 18l8 8a1066 1066 0 0 0 5 10l-20-10a128 128 0 0 0-43-14l-16-3a495 495 0 0 1-120-33c-10-4-10-2-2 9a118 118 0 0 0 15 19l3 4 8 6a181 181 0 0 0 35 26 162 162 0 0 0 25 12c0 1 13 6 27 10l12 4 10 2 16 5c2 2 2 2-4 6l-17 8-11 5a252 252 0 0 1-61 15c-11 1-14 2-14 3l7 5a213 213 0 0 0 50 18l36 6c20 3 34 4 50 4l14 1-1 2-1 1v2l-6 10a98 98 0 0 1-30 24l-12 7c-6 3-7 4-4 5l4 2 11 4c19 6 25 6 53 7h26v3l-1 3-1 1v2l-1 4c-2 10-9 23-13 25l-6 5-11 8-6 4c-1 2-18 9-23 10l-2 3c0 4 7 7 22 11l31 1a663 663 0 0 1 77 3l7 2a208 208 0 0 1 45 16 131 131 0 0 1 44 34l3 6c2 3 4 7 4 10l2 4v3l1 4v8l-1 4v3l-1 2v2l-2 5c-2 7-8 18-11 22-4 3-7 9-7 10a103 103 0 0 0 35-4 212 212 0 0 0 83-35 156 156 0 0 0 40-48 168 168 0 0 0 10-28c1 0 5-19 5-29 1-11-1-12-12-2l-10 8-5 4-10 4c-7 2-10 3-17 3l-10-1c-1-1-1-4 3-24l2-18c0-11-1-11-7-6-2 2-7 6-12 8-9 3-10 3-21 3-12 0-13 0-19-3s-23-17-23-19l-4-8-5-8-1-1-5-10-9-18-20-2c-17 0-19 0-26-2l-11-7-7-5-8-9a64 64 0 0 0-7-10l-3-6-6-12-3-6v-1c1-1 0-1-1-1l-1-2c0-2-8-15-9-15l-5-3c-5-5-19-13-31-17a52 52 0 0 1-10-5c-1-1 4-1 10-1l12 2 3 1c5 0 23 9 25 12l2 2 7 6 9 10 7 10a66 66 0 0 0 6 10l1 1 6 10c6 8 14 16 21 19 4 2 6 3 42 3 54 1 63 3 74 17l1 3 1 1v18a108 108 0 0 1-1 22c0 3 0 5 2 5 1 1 12-2 13-4l8-4 12-6 4-2c1-2 10-6 13-6 4 0 8 2 10 6l1 17-2 22c-3 12-3 15 0 15l3-1 6-4c10-5 18-9 19-11l10-6c9-5 11-5 13 1 1 3 1 19-1 40v9l9-4 5-3 18-13 5-5 4-3 7-9c6-6 12-15 14-20l2-2 1-1v-1l10-25 2-5c1-1 3-13 4-27a113 113 0 0 0-4-37l-1-1a136 136 0 0 0-15-39 3052 3052 0 0 1-5-9l-3-4-1-1-23-23-1 9c-1 15-3 26-4 28s-2 2-5 2a231 231 0 0 1-54-29l-7-4-4-3-6-5c-3 0-9-5-14-10s-6-8-6-18c0-9-4-22-8-25l-2-3-2-3-3-4-6-6-9-8-4-4c-1 0-4-2-6-5l-9-6-9-8a444 444 0 0 1-68-79c-2-1-5 0-5 2v2l-4 28h-1a541 541 0 0 0-82-79l-13-9-16-9-4-3-8-5a252 252 0 0 1-27-14 202 202 0 0 1-40-25 96 96 0 0 1-17-13 326 326 0 0 1-92-117 289 289 0 0 1-12-24c0-2-3-4-4-4a285 285 0 0 0 16 121v3l4 10a86 86 0 0 0 8 21l1 1 4 7c6 11 7 14 10 17l5 7 5 9c4 4 2 5-4 2l-5-2-6-2a194 194 0 0 0-12-6l-3-2a168 168 0 0 1-30-14 140 140 0 0 1-26-13 152 152 0 0 1-16-9l-1-1-12-8-6-4-10-8a240 240 0 0 1-35-28l-7-6a317 317 0 0 1-62-75l-3-4a106 106 0 0 0-10-19l-1-1-7-12a140 140 0 0 0-9-18 689 689 0 0 0-5-11l-3-8-2-2-3-8c-4-10-6-13-8-10m50 139 1 3v2l1 1 3 5c4 9 8 17 13 24l5 8 2 3 2 3 2 2 5 7 6 7 1 2 33 34 9 8 3 12c3 14 4 14 5 13l1-2 1-2 2-5c4-9 6-11 11-16l5-7-20-14-5-4-7-5-10-8-12-11a600 600 0 0 1-57-60m254 18 4 6 4 5 14 16a571 571 0 0 0 5 5l6 6 3 3 23 4a252 252 0 0 1 48 9 273 273 0 0 1 55 18l15 6 3 2 9 3a1265 1265 0 0 0 10 5l5 3 2 2a162 162 0 0 1 26 14 63 63 0 0 1 16 12l6 4 7 4 4 3 8 7 8 6 7 7a325 325 0 0 1 51 53l3 4 2 2 2 2 7 11a160 160 0 0 1 15 20v2l1 1 4 6a99 99 0 0 0 10 18v1a163 163 0 0 1 12 24c2 1 6 11 10 24l3 7 1 1v1l3 9a23604 23604 0 0 1 10 25 675 675 0 0 1 36 22h4l1-15-1-15-2-8a161 161 0 0 0-11-33l-7-18-5-10v-1l-1-1-1-1a140 140 0 0 0-12-27l-9-16-2-4-1-2-1-1v-1c1-1 0-1-1-1l-2-3-10-16-9-14-5-6-6-8-5-6-4-5a456 456 0 0 0-178-133s-2-2-5-2a681 681 0 0 1-29-10 269 269 0 0 0-48-14 365 365 0 0 0-108-12m-92 7a1370 1370 0 0 1-29 6 180 180 0 0 0-32 9 68 68 0 0 0 19 16c0 2 21 13 25 13l6-1 26-5h5v-5l-5-19-3-15h-5l-7 1m-190 66-8 6-6 3a307 307 0 0 0-47 37 11600 11600 0 0 0-24 22 470 470 0 0 0-64 81 494 494 0 0 1-6 10l-2 5-1 1-1 1v1l-6 10-6 11a193 193 0 0 0-14 31l-8 19-4 11-1 2v2l-9 27a162 162 0 0 1-4 16l-1 3v2a467 467 0 0 0-12 63 489 489 0 0 0 5 164 1066 1066 0 0 1 2 11 127 127 0 0 0 12 39l1-20a246 246 0 0 1 15-88l2-28a409 409 0 0 1 6-76 413 413 0 0 1 13-65 423 423 0 0 1 14-41 111 111 0 0 1 11-28l10-23 2-6 1-1v-1c-1-1 0-1 1-1l5-8a64 64 0 0 1 8-13l4-8 5-8 3-4 5-7a213 213 0 0 1 37-46l20-20a394 394 0 0 1 61-48l6-5 4-4-4-5-5-8-2-3-1-1-1-2-1-1v-1l-3-6-5-5-7 3m149 24c-3 3-7 11-7 14s5 8 8 9l8 4 6 4 10 10 1 1 2 4c3 11 5 20 7 23l2 4v-5l1-5 1-8 2-12a62 62 0 0 1 10-18v-1c2-1-3-5-13-10l-9-5c-3-3-20-11-23-11l-6 2m209 25 5 3 5 4 8 6 9 8a802 802 0 0 0 51 41l8 2 19 6 5 2-8-8-10-9-6-5-6-5-7-4-7-4-1-1c0-1-10-8-15-10l-5-3-13-8-13-7-12-6c-9-5-10-5-7-2m-141 6-2 2-2 3c-3 2-6 12-6 16 0 3 1 4 3 7l4 3 8 5 8 4 4 3c3 3 4 5 5 10l2 6 1 2v1l2 4a82 82 0 0 0 12 28l1-3-2-10-1-9v-16l2-9c1-8 6-23 9-25 1-2 0-2-2-5l-9-5-23-9-12-4-2 1m64 30c-4 4-5 8-7 21 0 8 0 10 7 13 2 1 6 3 7 5l6 4a187 187 0 0 1 64 67l-1-4a136 136 0 0 0-12-43v-2l-2-2-4-9-2-8c2-2 21 6 33 15l7 4 5 4 6 5a208 208 0 0 1 39 41l1 2 1 1-3-9v-1c1-1 0-1-1-1v-1l-1-1-4-7a102 102 0 0 0-21-30l-1-1a103 103 0 0 0-20-20 74 74 0 0 0-12-9l-9-6-3-2-4-3-19-8-3-2-7-4c-10-3-21-8-22-9l-12-4-6 4m165 60c0 1 14 9 24 13a189 189 0 0 1 23 13l10 5 12 7 13 7 19 10 7 5 6 3 11 7 17 10 5 4 8 7c6 4 7 6 7 7l4 5 6 8 5 9c4 6 7 13 7 17 0 3 2 2 2-2 1-6 1-12-1-18-1-7-5-15-8-16l-1-1c0-3-23-24-26-24l-5-4-12-8-7-5-1-1-7-4a182 182 0 0 0-14-8l-12-7-12-6-18-9-11-5-15-6-14-7-22-6M682 732l-8 5-2 2-5 5a388 388 0 0 0-74 84c-3 3-3 5 1 5l2 2-1 2v1c1 1 0 1-1 1l-9 27-3 8v2c1 1 0 1-1 2-2 2-9 35-10 55l-2 15v11l-1 11-1 5 1 6 1 6v5l5-27a241 241 0 0 1 9-48 319 319 0 0 1 39-98l4-8 4-7 2-3 2-2 2-3 2-3c0-2 6-10 8-12l2-2 4-7 5-7 1-1 1-1 1-2 6-7 5-7 5-5a136 136 0 0 1 13-15l-7 5m446 0 2 3 2 3 3 8 3 7 1 1 3 7c4 8 7 12 13 15l4 3c2 3 39 6 41 4 1-1-4-9-5-9l-10-9a112 112 0 0 0-32-25c-9-5-25-11-25-8m-9 50 5 6c4 6 12 13 15 13l4 2c4 1 21 2 25 0 2-1 2-1-2-1a102 102 0 0 1-38-15l-9-5m-431 13v1l-1 1-7 24c-3 11-4 19-5 39-1 22-1 22 7 21 27-3 59-8 60-10l8-4 9-6c1-1 1-1-2-1-14 3-58 4-62 2s-5-9-6-40l-1-27m647 51c0 6 2 10 4 11l2 1 6 3c5 2 8 4 15 11l10 12 1 3 1-3c1-9-7-26-14-31l-14-7-1-1c0-1-5-3-8-3-2 0-2 1-2 4m-547 49a80 80 0 0 1-7 12v1c-3 2-10 23-12 33l-1 4v1l-1 2c-2 1-2 21 0 22l1 5c2 10 11 31 13 31h1a163 163 0 0 0 34 33l7 4 1 1 8 5a496 496 0 0 1 35 17l10 4c1 2 31 12 32 11l-4-9a87 87 0 0 1-6-12l-7-20c0-4-4-9-8-11l-12-10a379 379 0 0 0-21-15v17l-1 16-2-2-4-5-10-21-2-5v-1l-1-2v-2l-3-11c-2-14-3-17-7-21l-2-4-2-2-7-9-4-8v-1l-1-1c-1-1-5-11-7-21-2-9-5-33-4-35a1 1 0 0 0 0-1l-6 10m-159 10a126 126 0 0 0 6 48l1 1v2l5 12 6 13v1l1 1 1 1 1 2c2 1 14-3 27-11a321 321 0 0 1 16-10l5-4c4-2 12-9 12-11l1-1c2 0 8-6 10-10l1-2-2 1-18 11-3 2c0 1-35 12-39 12-2 0-9-8-11-14l-3-3-10-23-2-4-1-2v-2l-2-7c-2-6-2-6-2-3m79 122-5 8-6 7a142 142 0 0 1-26 25l-5 4-3-2-4-3a158 158 0 0 1-30-22l-7-9c-6-7-7-8-7-5l3 8 3 7 1 1 5 8 8 11a2354 2354 0 0 1 21 20l9 8 5 3 3-3 7-9c2-4 5-7 6-7v-2l1-1c1 0 2-1 2-3l6-9 4-7 1-1a87 87 0 0 0 13-34l-5 7m53 11a249 249 0 0 0 11 50l9 18 2 3 4 7 5 7a118 118 0 0 0 49 36l10 4 17 7 19 6a188 188 0 0 0 52 10 700 700 0 0 0 25 5 668 668 0 0 1 77 15l-12-13-5-3c-2-2-5-6-8-7l-8-6-10-8a366 366 0 0 1-35-25l-10-6a160 160 0 0 0-26-15c-3-2-23-8-24-7l5 14 3 8 2 2 1 2v1l2 3 2 5 1 6a72 72 0 0 1-19-11 281 281 0 0 1-47-48l-14-8a76 76 0 0 1-20-10 159 159 0 0 1-42-29l-6-6c-3-3-6-7-8-7-2-2-2-2-2 0m-312 26-2 3-1 1-2 2a97 97 0 0 1-10 15l-1 3-6 7c-2 6-2 6-1 11a90 90 0 0 0 9 22v1l3 5 3 5 3-7a6385 6385 0 0 1 13-59l-3-7c-1-3-3-4-5-2m281 44-2 12v1l-1 2-2 6a161 161 0 0 1-16 30c-2 4-3 5-6 5l-7-2-9-3a104 104 0 0 1-25-10l-9-4-8-4 3 4 5 7 8 6 8 7 12 6 10 5 18 8c10 3 11 3 13-8l3-7v-2l1-1v-1l1-2 7-28c1-12 1-32-1-37-1-2-1 0-3 10m108 87 2 4 2 4 4 5 7 8a83 83 0 0 0 9 13l5 7 4 8 2 2 1 1v1l6 10a96 96 0 0 0 6 12l1 1 4 7c5 8 6 8 26 14l11 4a468 468 0 0 0 66 15 274 274 0 0 1 50 12 335 335 0 0 1 89 40l5 4 8 6 16 12a257 257 0 0 0-31-76l-6-9-4-5a261 261 0 0 0-40-35l-8-5-4-2-6-3-12-4-7-3-14-4h-3l2 4 3 4 1 1v1c1 0 8 14 10 21l2 5v1l1 1c1 0 5 17 4 18s-12-9-15-14l-8-7-5-5-8-7-8-6-2-2-6-4c-3-2-6-5-8-5l-2-2-13-9-7-5-5-3a374 374 0 0 0-53-11 589 589 0 0 1-72-20"/></svg>