<svg xmlns="http://www.w3.org/2000/svg" style="max-width:100%;height:auto" viewBox="0 0 1800 1800" width="1024" height="1024"><path fill="#F60" d="m1801 602-7 19 2 6c2 8-1 14-4 20l-11 15c-2 5-6 6-11 7-7 2-7 3-6 11 0 5-1 11-4 16l-11 13-13 11c-5 3-10 5-16 3-7-2-10 2-10 8-1 7-3 13-7 19-5 5-10 10-18 12l-5 3c-6 7-14 9-23 9-3 0-7-1-9-3-6-3-11-2-13 4-3 12-11 17-21 19-9 3-19 5-29 6-8 1-16-1-22-8-2-2-5-1-7 1-8 6-14 14-23 16h-9l-2 4 4 3h23c5 0 8 1 9 6l4 19a255 255 0 0 1 3 103l-5 21c-1 5-9 11-17 11h-5c-4 0-7 1-7 7a427 427 0 0 1-5 40c-3 16-7 31-9 47-1 3 0 5 1 8l4 14a590 590 0 0 1 4 16c2 6 2 12-2 18l-4 7c-1 2 1 6 3 7 12 6 15 18 18 30 2 7 2 14 2 22 0 6-3 11-7 15-2 3-2 5 1 7a336 336 0 0 1 15 16l3 33c1 6-2 11-7 15l-5 8c-1 1 0 4 1 5 13 8 12 21 12 34l-1 23c13-13 19-30 30-45l-1 7-6 24-10 22-13 25-12 18-15 19c-4 5-7 10-12 14-7 7-15 12-22 20-9 10-20 16-31 24a250 250 0 0 1-54 31l-33 13-26 10-23 5-19 4-19 3h-48c-15-1-31-2-46-5-16-3-32-9-48-13l-12-5c-6-3-11-4-17-1l-22 7-33 10-54 13-13 4c-4 1-4 3-4 6 0 9-1 10-11 11l-46 5-53 1-43-4-13-3c-2-1-3-4-4-6-1-8-1-8-10-9l-26-3-28-6-30-7a824 824 0 0 1-84-26l-17-7-49-23-15-6h-6l-18 5-40 10-31 4-20 3-21 1a330 330 0 0 1-17 0l-26-1-38-8-19-3-23-9-16-5-16-9c-10-6-21-11-30-18-18-14-35-29-50-46l-14-17a509 509 0 0 1-30-48l-11-19-18-48c-6-15-8-32-12-48l-2-23-3-36 3-24a289 289 0 0 1 20-89l10-19h3l-4 22-2 12-2 26 4 28c3 13 4 27 10 39 6 16 13 31 24 45 7 9 13 18 21 26a183 183 0 0 0 53 43l24 12c14 8 30 10 46 15 13 4 27 6 41 7l32 1h20c16-2 31-3 46-6l52-13 18-7 49-19c14-5 27-8 40-14 17-7 35-9 53-12l30-6 18-1 40-1 45 3 49 9 23 6a555 555 0 0 1 143 65l32 22 25 18 30 23 27 20 16 10 24 18 35 20 36 16c12 6 24 8 36 10l23 2 21 1a372 372 0 0 0 62-8l21-6 30-10 14-7 30-14c7-3 8-9 10-14l9-23 4-5 9-10 7-5-2-5c-9-4-9-13-9-20 0-11 0-21 2-31 2-8 7-15 10-22l-7-6c-6-5-8-13-8-20v-22c-1-8 2-14 6-20 2-3 2-6-2-8-8-4-12-11-14-20l-3-19-2-4-7 20-9 20-15 30c-5 10-11 18-17 27l-13 20c-3 4 1 8 1 11 2 9 0 17-5 25l-10 16-27 32c-6 7-14 13-21 19-8 9-15 18-26 23-7 3-14 4-20-1-7-5-10 1-14 4l-24 20c-4 3-7 7-12 9h-8a498 498 0 0 1-46-20c-11-5-21-12-32-18-6-3-9-9-11-16l-5-14-8-24-15-28a161 161 0 0 0-42-51l-23-17c-7-4-15-6-22-9l-25-8c11 18 18 37 24 56l-2 2-14-14-7-8a229 229 0 0 0-35-27l-29-19c-8-5-18-6-26-8l-28-5-42-10-21-9-10-1 16 24-1 1-15-4-16-4-43-4-49-1-49 4-26 4a562 562 0 0 0-80 23c-15 5-30 10-45 17l-38 13c-19 8-38 10-57 13l-51 6-31-3c-7-1-12-7-16-13l-13-22-16-33-9-20-7-17-15-35v-3l-6 22-6 12c-3 7-9 10-15 14-4 3-1 6 1 7 8 8 8 16 6 26l-3 19-4 8c-2 1-5 0-7-1a222 222 0 0 1-42-37l-18-18-11-19-11-24c-7-11-8-23-11-35l-2-16-1-20a225 225 0 0 1 27-103c5-11 12-21 19-32l12-16 1-6v-29l3-40 5-23c1-5 6-8 13-8h17c2 0 4-1 4-4l4-24 3-20c0-2-2-4-3-5-13-8-26-16-36-27a120 120 0 0 1-30-48l-4-9 2-2 7 4 13 9 31 17c9 3 19 4 29 6 4 1 6-2 7-5l4-17c1-4 0-7-5-8-7-3-14-6-21-11-6-5-13-11-13-21 0-5-1-6-7-5-8 1-17 2-24-3s-12-12-19-16c-6-4-10-8-11-14l-2-11c0-2-2-3-4-3-10 2-18-3-26-8l-5-6-9-10c-4-6-6-12-5-19 0-4-2-6-6-6-7 1-13-4-18-9-6-7-12-13-14-22-2-6-2-13-3-19l-1-4c-16-4-23-17-27-32-2-6-1-13-1-20-9-3-15-10-19-19-4-8-6-17-3-27 3-8-1-14-2-22l-2-8c0-6 1-8 8-10 4-1 7 2 8 6l5 13c2 3 4 5 7 6 8 1 12 5 14 13s7 15 9 22v9c-2 4-1 6 3 7l8 5c7 6 12 14 15 23 2 6 3 11 3 17 0 3 1 4 4 4 7 1 12 5 16 11l8 11c5 6 7 13 7 20s1 7 8 8c7 2 13 6 19 10s9 11 15 16c4 4 4 10 5 16 0 6 2 8 8 7 7-2 13 1 19 4 5 2 9 6 14 9 8 4 12 11 15 19 2 9 3 10 13 7s17 2 25 6l9 6c3 2 6 1 7-3a907 907 0 0 1 25-52c3-4 2-7-1-10-7-5-13-12-18-19l-13-22c-8-11-10-23-14-36-3-8-4-18-4-27v-28l2-17 6-21 2-2 3 3 15 38c4 8 7 15 12 22 9 13 19 24 32 33l10 9 11 7 4-2a1034 1034 0 0 0 27-32c3-4 0-6-2-9l-12-11-10-15a755 755 0 0 1-14-20c-6-11-11-23-15-35a463 463 0 0 1-11-56v-26l6-41 2-7 3-4 3 3c2 9 3 17 6 25 6 18 11 36 22 52l8 14a409 409 0 0 0 38 45l19 16 7 6c6 4 10 3 16-1l25-19c7-6 14-12 23-17 10-5 8-11 5-19a150 150 0 0 1-6-62l2-2 2 2 15 18 9 9 20 18c3 3 6 2 9 1l9-5c3-2 6-1 7 4l7 36 1 10 9 27c2 6 2 7-4 9l-12 7-14 9a1019 1019 0 0 0-42 31l-18 15-7 6-6 7-22 23-15 17-25 32-10 16-18 27-5 10a11054 11054 0 0 0-17 37l-7 16c-8 16-14 33-19 51l-9 31-5 21-8 40c-1 6 1 8 7 9l34 4h17l4-3 7-43a580 580 0 0 1 12-47l14-38 4-8 9-21 16-30 6-9 20-30 23-29 16-18 7-8 16-17a452 452 0 0 1 50-39l23-15c4-2 5-1 7 2l13 22c5 6 4 9-3 14a593 593 0 0 0-64 49c-5 3-9 9-13 14l-5 4-7 7-7 9-12 15-14 21-21 33a438 438 0 0 0-18 36l-14 36c-7 13-10 27-13 41a7730 7730 0 0 0-10 42l-1 8c0 3 0 4 3 5 10 4 10 3 11 15l3 29c0 11-4 19-10 28-3 3-4 9-6 13l-9 21-8 25c-5 14-6 29-7 44l-2 31 1 26-2 4-7-21-9-50-2-18c-1-7-4-10-11-8h-1a23513 23513 0 0 1-34 3l-12 1-3 4 2 13 4 26a1653 1653 0 0 0 13 62l5 12 7 26 6 12c7 16 13 32 21 47l15 27 23 35 8-7 17-17c2-2 2-4 1-7-2-9-2-9-11-8l-18 2-7-2 8-17c3-5 7-9 12-12 2-1 4 0 4 3l-1 12 8 2 2-4c0-12 0-25-8-35-4-5-6-12-9-17l-9-20-5-14 2-5 18-26a186 186 0 0 1 7-9c2-2 4-1 5 1l4 11 9 22 15-33c4-9 8-18 14-25s8-15 8-24l3-20c-9 1-15 3-21 8l-10 7-8 7-3 3-10 11-18 21c-1 2-3 2-5 3v-11l-1-21 2-16 6-30c2-12 5-24 10-35l9-20 13-20a244 244 0 0 1 13-17l12-12 23-20 21-16c4-3 7-6 9-10l13-25c2-4 0-7-4-8l-8-2-16-2c-13 1-25 4-37 8l-16 5-26 11h-3c0-9 2-16 7-23l10-15 4-4 9-11 15-13 25-20c10-6 19-12 30-16 8-3 15-8 23-10l56-15 12-1 17-3c4-1 4-4 2-7-8-8-15-17-24-24-10-8-21-13-32-19l-23-8-28-9-4-2 3-3c15-12 33-15 50-18l37-6a334 334 0 0 1 90 8l31 8h4l-21-15a622 622 0 0 1-36-29l-6-6-7-7-7-8-2-3-12-13-21-28-20-35c-9-15-14-32-20-48l-7-25-10-45-2-28a812 812 0 0 1 0-59l2-4 4 3 4 12 14 29c7 15 16 29 24 44 8 14 17 27 27 39l16 19 17 18 9 10c15 11 28 24 43 33 9 5 16 12 24 17l17 10 15 8 37 17 21 11 13 4-22-40a281 281 0 0 1-27-83c-3-12-5-25-6-37s1-24 1-36l2-3 14 27a1030 1030 0 0 0 15 26l8 13 20 26 24 30 4 4 25 21 15 11 23 16a187 187 0 0 0 16 9l33 17c11 6 21 14 31 21a352 352 0 0 1 47 37l18 22 5 4 15 19 2-5 1-26 2-4 3 2 5 5 24 30 9 13 20 19 24 21 23 20a71 71 0 0 1 22 37l1 14c0 5 4 9 8 12l14 10a2784 2784 0 0 0 63 36c6 3 10 1 11-5l2-17 1-9 1-7 20 20c9 10 14 21 19 33 5 10 9 21 10 33l3 20c1 14-3 28-7 41a127 127 0 0 1-32 56c-9 8-18 18-30 23l-7 5h-5l1-17c2-11 3-21 0-31-1-5-4-6-8-4l-16 11-12 6-17 9 1-13 3-33c0-6-1-11-7-13-6-3-11 0-15 3l-6 4-25 13-9 2 1-20-1-25c-1-4-4-8-7-11-6-6-14-8-22-9l-44-3-31 1c-9 0-16-4-22-9-12-9-17-22-25-34l-9-11-3-6a86 86 0 0 0-36-23c-9-3-18-4-28-4v1l6 4c17 5 31 13 43 26l10 16 13 25a57 57 0 0 0 56 32h15c4-1 6 2 8 4 4 10 8 20 14 29 5 8 9 18 18 24 5 4 10 8 17 10 8 3 16 4 24 1l25-11c3-2 5-1 5 3l-3 20-3 23c0 3 2 6 5 5l30-7c5-2 9-7 14-10l8-9c2-1 4-2 6-1l2 4-2 21c-3 12-6 24-11 35-4 9-10 17-16 25-7 9-15 18-24 26l-15 11c-9 4-19 7-27 12-13 8-29 9-43 14-9 3-18 4-27 4l-8 1 4-8c12-13 18-30 18-48 0-12-4-22-11-31-4-6-10-9-16-14l-7-5-21-13-18-9-29-7-25-4-5-1-67 1c-11 0-22-2-32-7l-4-4 4-4 34-18c3-2 5-6 9-8 10-6 9-17 13-25l3-9c1-3 0-5-4-5h-23c-20 2-39-4-58-9l-2-2-7-4 7-5c9-5 18-8 25-15 10-8 19-16 22-31-55 2-108-6-157-33l4-1 19-2 26-5c13-3 26-8 38-14l19-9 5-4-14-4-29-9-21-8-28-13c-11-6-21-14-31-22-14-10-24-24-34-37-2-2-2-4-3-8l34 14 24 7c20 6 39 10 59 13 19 3 37 8 55 12l15 8 21 8c-4-6-7-12-13-16l-19-13-13-5-21-8-27-4-29-5a416 416 0 0 1-72-23l-28-14-27-15a230 230 0 0 0 89 113c21 12 43 21 66 33 0 3-4 3-7 4-11 5-23 7-35 8l-14 1c-21 4-43 3-65 3l-4 1a342 342 0 0 0 187 61c-1 3-2 6-4 7l-25 15-29 11-13 5c11 9 24 11 36 15s24 8 36 10l38 3 8 1c3 0 4 3 2 5-8 11-16 20-30 21-10 1-18 6-24 16-7 9-9 19-10 30-1 15 0 30 5 45 4 11 9 21 17 30 10 10 20 19 31 26l17 11-17 6 12 8 20 16 7 4 30 24 13 10 33 24 6 6 15 14 16 14 3 3-17 5 18 17 22 24c3 3 5 5 8 2l27-23 18-14 4-6 22-24 12-15 16-21 10-16 15-27 14-28 14-32 9-20 11-19c2-3 6-4 9-5l24-13 4-1c-5 32-16 63-26 93-11 31-28 59-44 86l45 42 14-18a831 831 0 0 0 43-84l15-45c6-19 9-38 13-57l5-28 3-21 2-15c1-5-1-6-5-7-5 0-6-4-4-8l10-25c4-9 8-17 8-27l1-29-3-24-7-28-5-19c-2-8-5-15-6-23l-7-31c-1-6-2-7-7-5-8 2-15 4-22 8-4 2-6 1-9-2a1278 1278 0 0 1-12-11l-4-3-4-2-1 4 1 47-2 5-3-2-35-20-21-15c-3-2-4-6-4-9 1-13-6-24-12-35l-11-16-9-7-11-10c-2-2-2-4 1-5a2258 2258 0 0 0 30-11l19-7 24-9 32-12 40-19 20-8a714 714 0 0 0 44-23l39-25 30-22 29-23 20-18 27-30c10-9 17-20 25-31a182 182 0 0 0 32-85c2-17 1-35-4-51l-10-21-5-9c7 0 11 2 16 5l5 5c14 8 23 20 29 34 5 15 9 30 11 46 1 6 4 12 7 18l16 34c7 16 13 33 15 50l2 33c-1 17-5 33-11 49-4 8-7 17-12 25l-14 21-20 24-27 25-17 14a866 866 0 0 1-72 44 530 530 0 0 1-61 24c-11 4-11 3-7 14l4 11c1 3 3 4 6 4l17 1c5 2 12 3 15 9 3 5 6 4 9 0 8-10 19-15 31-18l25-5c3 0 7 0 10 3 3 4 6 2 8-2l8-15c3-3 9-5 13-7l7-5c8-6 18-8 28-7 6 1 9 0 9-6 0-10 5-17 10-24 6-8 16-11 23-17 2-2 5-3 7-3 4 0 4-2 4-4 0-7 2-14 5-20 3-5 5-10 9-14s10-6 15-9l7-5 11-15c5-6 10-4 13 4v10M685 731l-11 7-21 19-19 18-18 23a337 337 0 0 0-10 12l-10 15c-2 3-6 7-2 11l-1 4-9 31-7 23a412 412 0 0 0-9 86l1 10h2l3-20c2-17 4-33 9-49l7-28 8-19 9-23 14-28 19-32 26-36 5-6 16-18 2-2v-1l-4 3m295 426-19-13c-17-12-34-22-54-27h-5l1 4 12 24c2 4 4 8 4 13l-12-6-19-16-20-19-5-6c-4-7-9-13-17-16l-30-15c-15-9-29-20-42-32l-3-3-10-11-1 3c3 14 3 28 9 41 3 7 4 16 8 23 6 11 14 21 22 32 6 7 13 13 22 17a426 426 0 0 0 67 28c14 4 29 6 44 9l30 5 37 7 42 9-4-7-12-9-19-17-26-18m-716 264 6 3c17 12 35 20 54 27l24 8 15 2 36 5 46-2c17-1 35-4 51-9l22-7-5-6-30-20-9-2-46 4-29-1-27-2-35-6-30-8c-15-6-29-11-42-19l-41-23-19-13-2 1 12 17 22 26 6 6 21 19m565-425-1-8c-1-7-2-14-7-20-7-10-14-20-18-32-3-6-5-13-6-21l-4-27h-1l-8 14c-9 13-12 28-17 43-2 8-1 16-1 24l2 8 5 16c2 5 4 11 8 15 10 10 19 22 32 30l36 21 29 13 32 12-3-7c-6-11-11-22-14-34-1-6-4-9-8-12l-33-27c-4 10-2 21-2 33l-4-3-8-14c-3-7-8-15-9-24m-48 464 32 4 17 2c4 0 7-2 7-7l1-16 3-26c1-6-1-8-7-9l-5-1-25-5-35-6c-4-1-9-2-13-1l-34 11-6 2c-7 2-9 9-11 15-1 3-2 6-7 5l-2-11-22 9v2c35 12 70 24 107 32m255-804-5-8-12-16c-6-7-14-13-21-19l-5-5-28-18-19-10-32-14c-7-3-13-4-16 5l-6 18c0 3 1 8 3 10l16 12 21 13 25 25c6 7 10 15 15 23l3 6 1-1-1-10c-2-19-10-36-19-53l-1-4h4c14 4 27 13 39 22l23 20c8 7 15 14 20 23l6 6 2-1-13-24m677-137c5-25 7-50-5-74l-4 11c-2 15-4 30-9 45-4 11-7 23-14 34l-13 26c-8 18-22 33-34 49l-14 17 2 2c43-26 73-63 91-110m-492 775c-2-1-4-1-7 1l-23 19c-4 4-9 6-15 10l2 8 8 16 10 30c1 2 2 3 5 1l31-23 19-17c3-2 7-5 4-9l-12-13-22-23M205 1145l1 20 4 22 3 3c6 0 8-4 6-9l-2-7-3-10 5-26c2-8 5-16 13-20l9-5c4-3 5-6 3-10l-4-10c-2-12 3-22 8-32l3-9-5-15-7 12-16 25c-6 14-13 28-14 43l-4 28m525-642 8 29c5-15 8-29 22-38-44-27-79-61-110-100-1 1-2 2-1 3l13 26 17 23 27 32c7 9 16 16 24 25m142 126 6 8-5-33c0-6-1-12 2-19l8-24c2-4 2-6-3-8l-28-11c-3-1-6-4-10-4-3-1-7 0-9 2-3 4-5 9-6 14-1 3-2 7 0 9l9 8c5 4 12 6 15 10 6 8 9 17 13 26l8 22m380 124c-2-9-5-16-10-23-7-10-15-17-24-24l-6-5-5-4-28-17-14-9-19-9-20-11a225 225 0 0 0-40-17l-28-10a97 97 0 0 0 16 11l25 13 38 19 20 11 14 7 21 16c9 5 17 10 25 17 10 9 19 19 25 32l8 18 2-15m-540 280 3-13c-6 8-12 14-16 21-8 12-19 19-29 27-2 3-5 2-8 1l-19-13-13-11-14-18 1 8c8 16 17 32 31 44l6 4 13 12c3 2 5 1 7 0l6-8 18-27 14-27m-56 114-10-6-1 2 8 7 17 16c3 3 8 4 12 6l31 14c5 2 6 1 8-4l9-26c4-14 6-29 5-44l-2-10-10 31c-3 9-8 18-12 26-2 4-5 6-10 4-15-5-31-8-45-16m-24-239-2-4-1 2c0 16 0 33 7 48l9 26c4 9 6 10 15 5 16-8 32-16 46-28l14-15-1-1-6 2c-7 4-13 9-21 12l-25 8c-4 1-9 2-12-3l-14-26c-4-8-6-17-9-26m104-34c12-4 20-9 21-12h-11l-47 2c-3 0-7-1-7-6l-3-24v-37l-2-1-7 23c-2 8-4 15-4 23v36l3 4h9l28-4 20-4m53-329c5 3 7 7 8 12l7 23 2-5 2-17c1-9 4-17 9-25 3-3 2-5-1-7l-3-2-26-14c-5-2-10-8-16-4-4 3-6 8-9 12-3 3-2 6 2 8l9 7a942 942 0 0 1 16 12m352 191-14-6c0 4 2 5 3 7l13 27c4 10 11 14 20 18l15 3h21l1-3-9-10-22-20c-8-6-18-11-28-16m-77-153c-31-25-68-42-102-62v1l24 17 21 18 28 23c4 4 7 8 12 11l23 8 13 3 1-1a5816 5816 0 0 1-20-18m-89 855 2 22 4 3 31-5 4-2-3-4-24-18-14-10-1 2 1 12m-333-68-14 5-12 5-19 6 7 6 14 7c6 4 9 4 16-1h-4l2-14 2-2c6-4 12-3 19-1l4-15-15 4m731-488c-1-20-17-34-39-39-2 5 2 14 8 17l18 11 13 16v-5m-708 497c1 3 2 4 4 2l15-7 8-4-16-7c-8-5-11-5-17 1l6 15m484-579-29-16c9 17 29 25 45 19l-16-3m443-29c1 4 3 6 8 4l4-2-7-9-9 4 4 3m-74 405c0-3 0-6-5-5-4 0-6 2-5 6 1 5 2 6 10 5v-6m-878 221 13-5v-2l-7-2h-5c-1 3-2 6-1 9m1028-655v2l7-4 1-4c-2-2-4-3-7-3l-4 2 3 7m-144 503-2 2v6c1 2 4 2 6 2l2-6c0-3-3-4-6-4m2 86c1 3 3 2 5 0 3-3 1-9-4-11-2 3-4 6-1 11M205 622l4 4 1-2c2-2 4-3 2-6l-4-3-3 7m65 42 4 1c0-7-1-8-6-10-2 3-2 6 2 9m-29 486 1 4h6l-2-8-5 4m1487-457c2 4 4 0 6 0l-3-7h-2l-1 7M159 573l-2-4-4 2 2 4 4-2m-46-49v-5l-3 1-1 5 4-1m115 699 3 4 2-2-4-5c-2-1-3 1-1 3m1543-586v-4h-2l-3 5 2 2 3-3M524 1197l-1-9c-4 7-4 8 1 9m196-257h2v-2l-2 2m899-312 1 1-1-1z"/><path fill="#F60" d="m1610 443-14 17a574 574 0 0 1-25 24l-30 27-20 16-38 26c-14 10-29 18-45 26l-29 16-19 8-21 9-11 5-39 16-38 13-38 13c-4 1-8 4-11 2-6-4-10-9-14-13v-4l19-8 16-6-13-17-22-26-16-15-5-6-21-18-8-6-28-22c-9-7-19-12-29-18a407 407 0 0 0-99-39l-30-7c-4-1-8 2-9 6l-3 13-21-16-25-22c-5-4-9-10-13-15l-8-10a450 450 0 0 1-29-41l-9-17-11-20-18-38-11-23-3-4-5 20c-3 26-5 51-4 77l4 30 3 20 8 28 4 18 6 14c1 3 0 5-4 5-7 0-9-1-11-7l-5-12c-2-5-6-7-10-6l-17 4h-3c-15-7-28-18-41-30l9-3 33-8 16-3 3-4-1-10-5-24-3-18c0-2-3-3-4-3l-21 3-34 7-17 6-26 8c-2 0-4 0-5-3-8-10-17-20-24-31-6-10-15-19-17-31-3-13-3-26-1-39l6-29 3-6c2 4 4 5 4 8 4 14 11 27 19 40 5 6 7 7 15 5l18-4c16-6 33-8 49-10 6-1 7-5 8-9 2-12 8-23 14-33s12-21 20-30c4-6 10-11 16-15 13-11 28-19 45-23h4l-1 4-8 15c-4 9-6 18-9 28s0 20 1 30c1 5 4 6 7 6l41 1 25-1c4 0 6-2 7-5l2-19c1-16-4-31-12-44a294 294 0 0 1-8-15l3-1 32 15c12 6 21 14 30 24l11 15c5 7 11 15 15 23s6 17 9 26c2 5 3 8 10 8a401 401 0 0 1 71 17c4 1 5 0 7-2 7-12 15-22 19-36 1-6 5-11 8-17l4 7c8 17 10 36 9 55 0 3-2 7 1 10 5 2 10 3 16 1l24-11 10-6 34-15 17-9 15-6 28-13 21-6 19-8 20-5 21-5 34-6 21-4 16-1a855 855 0 0 1 29 0l20 1 24 7-12 2-33 3-16 3-31 6-26 7-18 5-34 13-40 19c-7 3-14 7-20 12l15-5 36-12 22-7 40-9 24-5 30-5c17-2 35-2 52-5 15-3 30-4 45-2a765 765 0 0 1 61 9c9 2 15 8 21 13 11 11 19 24 22 39 3 14 4 29 0 44-3 10-4 20-8 30a203 203 0 0 1-24 46l-10 13m-589-18 9 2 30 10 33 12c10 5 21 8 31 15 11 6 24 11 34 18 12 8 22 17 32 25l10 5 20 19 16 14 30 34 23 29c4 6 5 7 12 3l13-5 36-14-10-17-19-25-11-14-17-19-19-19-21-18-10-10-29-21-22-16-31-17a1264 1264 0 0 0-75-35l-43-13-44-10c-3 0-8-1-9 3a372 372 0 0 0-4 23c-1 9-1 17-3 25-1 5 0 7 4 8l34 8m383 19-4 3-18 23-6 7c-1 4 3 6 6 8l14 18c3 3 5 3 8 0l21-18 2-3 9-8 12-15 7-15 9-16 10-21h3l3 31-2 18c0 16-3 31-9 45l-15 34-4 8 7-4 17-10 23-17 14-10 16-18c11-11 20-23 26-37 6-16 8-32 4-49-3-14-10-25-21-33-6-5-13-9-20-12l-39-12-36-3c-5 0-6 1-6 6a343 343 0 0 1-3 39l-5 12c-3 13-7 24-14 34l-9 15m-58-26 15-12 18-15 18-20 5-9 11-18c2-4-1-7-5-6l-17 2c-14 0-27 3-41 5l-43 12-36 9-15 7 21 15 31 25 12 10c5 5 8 6 12 3l14-8zM479 577l-18-17c-3-2-2-3 0-4 5-3 9 0 13 3l10 9c2 2 4 2 6 0 1-2 2-4-1-6l-17-13c-3-4 0-6 2-9l18 9 7 6 6 4 6 5-6 5c-7 2-11 6-13 13-1 2-6 3-8 1l-5-6zm-105 466 2-5-11 3-10-1c5-8 19-12 35-11 2 8 0 15-5 19l8 1c3 1 5 3 6 5-3 6-8 6-13 6l-21 3-3-2 5-10 7-8zm1029 30c-1 7-4 10-11 10h-6c-13-1-19-14-16-24 1-4 3-7 8-8 6-1 12-2 18 2 5 3 6 8 9 13 1 1-1 4-2 7m-11-8-1-2h-10c-3 4 1 6 4 7h1l6 2v-7zm-985 29 6 14 1 11c-7 3-7 3-10-3l-2-5-16 9h-5c-3-1-3-3-1-5l13-13 1-5h-5l-10 2c-3 1-4-2-5-4-1-3 0-6 3-7l25-2 5 8zm180-622c-3 5-6 5-10 3s-9-2-14-1c-4 0-3 5-1 7 2 5 6 9 9 13l3 9-3 3-8-3-10-11c-4-5-7-11-7-18 0-2 2-4 3-5 7-6 15-7 23-6l12 4 3 5zm769 695c-7-1-12-6-14-11-2-7-1-13 5-18 4-4 10-3 15-1s11 5 12 13c2 6 0 11-4 15-3 3-9 4-14 2m-1-13h6v-4l-9-3c0 4-1 6 3 7z"/><path fill="#FF6601" d="M467 620c-2 7-10 10-15 5l-11-17-6-5c-5-2-5-4-1-7 6-6 15-5 23 1l11 12c4 4 4 6-1 11z"/><path fill="#F60" d="m1392 1027-11-11c-1-1 0-4 1-5 8-7 16-13 27-14l10-1c2 7-2 11-10 12l-15 3v2l18 13c3 1 4 4 3 6l-5 3-12-4-6-4zM519 510l5 5 1-1-4-10c-2-3-1-6 2-8s4-1 5 2l15 25 3 9c0 3-4 4-8 2l-23-15c-4-2-7-6-11-10 6-5 10 1 15 1zM359 796l2-8c0-2 2-3 3-4l5 5-1 9 2 5 4-2c3-2 8-2 13 2 3 4 5 16 2 20l-1 1-7-8c-2-3-4-3-7-2l-8 5-4 2c-2-2-4-4-4-6l1-19zm31-115h8l1 1 5-10c1-3 2-6 6-5l3 6v12c0 2 1 4 3 5l9 6c2 1 3 4 3 5-1 1-3 3-5 3l-16-6-10-5c-6-2-8-6-7-12zm9 91c-5 0-9-2-11-6-1-3-4-6-6-7-3-2-6-3-9 0l-8 3c-2-8 7-20 15-20l7 3 13 23c1 1-1 2-1 4zm931 418h-17c1-5 3-7 7-8 13-3 23 2 33 7 2 1 3 2 3 4l-3 2-4 5c-1 4-2 8-5 12l-3-6-4-11-4-3-3-2zM603 445c7 6 14 13 17 22v10l-5-1-16-19c-3-4-8-7-9-12l1-4h4l8 4zm124-53v-7c0-4 3-5 6-6s4 1 4 4l3 14 3 17c0 4-2 9-5 10-7-10-8-21-11-32zm-314 758 14-5c0 7 0 11-6 14l-12 7c-3 2-6 1-9 2v-17c0-4 1-7 5-10l3 4 5 5zm32-494-11-4-17-14c-2-2-5-4-2-8 3-3 8-3 11 0l6 6 12 8c3 3 4 9 1 12zm325-241c-10-11-9-25-10-38l4-4 3 3c6 12 7 24 7 37 0 2-1 4-4 2zm621 692c4 0 5 3 4 6s-3 5-6 3c-4-2-9-3-12-6-5-4-11-6-16-9-3-1-4-3-3-5s4-3 5-3l10 4 18 10zM407 729l-26-13c-3-2-3-4 1-5l11 1 18 9c4 1 4 4 3 7-1 4-4 1-7 1zm-44 278h-9c0-7 2-9 9-10l18-2c3 0 7 0 7 5s-1 6-6 6l-19 1zm1046-242c1 3 6 4 1 7-3 2-9 1-10-2-1-1 1-4 2-5h7zm-621 684c-4-7-6-13-1-20l3-3c5-1 6-5 7-9 0-5 3-7 7-8l2 6c1 11-2 21-5 32-1 3-3 6-5 7-2 0-5-3-8-5zm-35-4c-6 1-8-5-12-6-3-1-5-3-7-6v-4h4l8 2 5-14 7-11h4l2 5-6 26c-1 3-2 6-5 8zm446-87c-2-5-5-9-9-12l-6-6c-2-4-1-6 2-9 2-3 4-1 6 0l10 6 8 2-6-10-4-9 2-4 3 1 3 2 15 21v8l-22-4 6 11c3 2 2 3 0 5l-5 3-3-5zm4-892-13 23-5 3-2-5c0-8 3-14 8-19 2-2 2-5-1-7l-16 11-5 5c-4 2-6 1-6-4-1-7 4-12 6-19l4-13c0-2 0-5 3-4 2 1 6 4 6 6l-2 14 16-6c3-1 11 1 12 4l-3 7-2 4zm-181-56a772 772 0 0 1 9-31c0-1 2-4 3-3l4 3 1 7c0 4 1 7 6 8 6 0 11 1 16-4l5-3c-1 12-3 22-10 31l-5-9c-2-4-13-9-16-7l-3 5-4 10h-6v-7zm103 27v-3c-3-1-5-3-8-3l-3 5-5 8-4 1-2-4c3-9 4-19 10-26l2-6 4-3 4 4v8c0 3 1 6 5 7 8 3 10 9 7 16l-4 8c-2 2-4 4-6 4-3 0-3-3-3-6l3-10zm128 102a1184 1184 0 0 0-3 4c-10-8-3-14 1-22l-14 2-4-1 1-4 10-6a173 173 0 0 1 18-6h6v7l-7 15-8 11zm63 23c5 4 5 7 3 12l-6 20-3 4-3-3-2-14c-7 3-13 12-25 10l13-15 20-13 3-1zm-30-30c4-2 7-6 10 0-9 14-21 23-36 30-2-6 0-9 3-12l23-18zm-64-45 12-11 5 5-11 15-11 12-3 2c-1-1-3-3-3-5-1-5 3-8 6-12l5-6zm-132-62-6 8c-2 2-5 1-5-2l3-16 7-15 4-3 3 4-3 15-3 9z"/><path fill="#F60" d="M1164 457c-2 1-5 2-6 1l-1-6 4-10 5-11c5 0 6 3 6 5-1 8-2 15-8 21z"/></svg>